:SAMPLES-PER-SECOND 30
:FULLY-SPECIFIED
:DEGREES
1818
root  5.49957 41.6251 2.84495 101.801 -66.8438 -100.163
RightUpLeg  -24.8285 -23.7559 -0.902945
RightLeg  55.8808 -2.39668 -4.25144
RightFoot  -0.233184 -1.36109 13.916
RightToes  -4.65663e-010 0 -3.6325e-017
Spine  4.78523 0.61527 -7.94942
Spine1  4.06417 -2.8658 14.5768
HEad  33.0541 -3.21524 4.10061
LeftShoulder1  4.35627 -6.37211 -37.8992
LeftArm  -13.7198 19.2381 -33.4842
LeftForeArm  35.7404 -33.1984 -5.31303
LeftHand  -0.244104 0.0205437 5.32207
RightShoulder  4.36488 6.78543 36.4244
RightArm  1.33498 -32.2385 21.941
RightForeArm  -0.868554 18.3222 5.52753
RightHand  -2.13734 6.31616 -21.2705
LeftUpLeg  -8.48864 15.7634 20.6696
LeftLeg  11.2942 6.38305 0.395002
LeftFoot  -4.35044 -0.111932 2.26388
LeftToes  4.18335e-011 1.59304e-011 3.38507e-012
1819
root  5.50639 41.4345 2.61606 103.89 -69.2533 -101.877
RightUpLeg  -21.6699 -23.8937 0.91535
RightLeg  45.7541 -0.803527 -1.21474
RightFoot  -0.634905 -1.49839 15.8476
RightToes  -4.65663e-010 0 -3.6325e-017
Spine  3.98315 0.778817 -8.92314
Spine1  4.8375 -2.40035 13.0036
HEad  35.1385 -2.30101 3.37407
LeftShoulder1  4.33116 -6.24303 -38.2089
LeftArm  -13.8667 19.7405 -33.6787
LeftForeArm  35.3468 -33.3054 -5.36072
LeftHand  -0.244104 0.0205437 5.32207
RightShoulder  4.42274 6.82183 36.8238
RightArm  3.33049 -31.8343 22.4756
RightForeArm  -2.12351 20.525 5.19159
RightHand  -2.17667 6.23601 -21.7897
LeftUpLeg  -9.57258 15.4515 18.315
LeftLeg  12.7754 7.03719 0.332927
LeftFoot  -5.14653 -0.106178 2.53149
LeftToes  4.18335e-011 1.59304e-011 3.38507e-012
1820
root  5.51095 41.2547 2.41071 106.302 -71.957 -103.962
RightUpLeg  -18.4461 -24.1809 1.67396
RightLeg  35.3585 1.87478 1.17475
RightFoot  -1.10614 -1.4697 16.2142
RightToes  -4.65663e-010 0 -3.6325e-017
Spine  3.27047 0.944449 -10.003
Spine1  5.74027 -1.96259 11.7482
HEad  36.8476 -1.66053 2.642
LeftShoulder1  4.32738 -6.18416 -38.4284
LeftArm  -14.3418 20.3074 -33.6656
LeftForeArm  35.2004 -33.128 -5.32561
LeftHand  -0.244104 0.0205437 5.32207
RightShoulder  4.47967 6.91176 36.9958
RightArm  4.94216 -31.3532 23.0493
RightForeArm  -2.92016 22.4616 5.09878
RightHand  -2.12246 5.95998 -21.7602
LeftUpLeg  -10.3866 14.8929 15.5705
LeftLeg  13.7174 7.8376 0.342955
LeftFoot  -5.75537 -0.0884324 2.52322
LeftToes  4.18335e-011 1.59304e-011 3.38507e-012
1821
root  5.52167 41.0783 2.2262 109.95 -74.6167 -107.421
RightUpLeg  -15.38 -23.9092 1.62021
RightLeg  25.5807 5.17877 2.36926
RightFoot  -2.02226 -1.29771 15.6704
RightToes  -4.65663e-010 0 -3.6325e-017
Spine  2.91851 1.2385 -10.6361
Spine1  6.44577 -1.31978 10.3289
HEad  38.2326 -1.33566 2.05141
LeftShoulder1  4.35096 -6.19058 -38.6323
LeftArm  -14.7267 20.8961 -33.3475
LeftForeArm  34.9627 -32.6005 -5.21119
LeftHand  -0.244104 0.0205437 5.32207
RightShoulder  4.53946 7.00408 37.1807
RightArm  5.74003 -30.868 23.4525
RightForeArm  -2.2375 24.0715 5.24509
RightHand  -2.10393 5.90307 -21.6815
LeftUpLeg  -11.0204 14.15 12.6857
LeftLeg  14.5113 8.85766 0.627312
LeftFoot  -6.19132 -0.0758112 2.51523
LeftToes  4.18335e-011 1.59304e-011 3.38507e-012
1822
root  5.54294 40.8726 2.04638 115.645 -77.0973 -113.184
RightUpLeg  -12.0439 -21.3779 0.312084
RightLeg  16.2751 6.60318 2.66364
RightFoot  -2.86192 -1.23186 16.2359
RightToes  -4.65663e-010 0 -3.6325e-017
Spine  2.9926 1.6121 -10.7126
Spine1  7.08335 -0.469335 8.29528
HEad  39.1339 -1.11691 1.52259
LeftShoulder1  4.41428 -6.25838 -38.9546
LeftArm  -14.8778 21.3481 -32.5683
LeftForeArm  34.3046 -31.7505 -5.04438
LeftHand  -0.244104 0.0205437 5.32207
RightShoulder  4.65245 7.15687 37.607
RightArm  5.83597 -30.2223 23.6626
RightForeArm  -0.963524 25.2129 5.45308
RightHand  -2.15665 6.05468 -21.9226
LeftUpLeg  -11.5278 13.6138 9.89288
LeftLeg  15.6387 9.74945 0.977336
LeftFoot  -6.79446 -0.056909 2.46127
LeftToes  4.18335e-011 1.59304e-011 3.38507e-012
